<svg id="Layer_1" data-name="Layer 1" xmlns="http://www.w3.org/2000/svg" viewBox="0 0 1232.25 384.31"><defs><style>.cls-1{fill:#3d3d3d;}.cls-2{fill:#4e3bd2;}</style></defs><path class="cls-1" d="M669.42,173.61h66.7q23.91,0,42.27,9.12a68.45,68.45,0,0,1,28.53,25.7Q817.09,225,817.09,247t-10.17,38.59a68.38,68.38,0,0,1-28.53,25.7q-18.36,9.12-42.27,9.12h-66.7Zm65,118.93q22,0,35.14-12.27T782.69,247q0-21-13.11-33.25t-35.14-12.27h-31v91Z"/><path class="cls-1" d="M887.46,210.11a58.72,58.72,0,0,1,23-4.2v30.21c-3.64-.28-6.08-.42-7.34-.42q-14.05,0-22,7.87t-8,23.59v53.28H840.37V207.59h31.26v14.89A36.39,36.39,0,0,1,887.46,210.11Z"/><path class="cls-1" d="M931.62,186.61a17.74,17.74,0,0,1,0-26q5.65-5.25,14.68-5.25t14.68,5A16.15,16.15,0,0,1,966.65,173,17.81,17.81,0,0,1,961,186.51q-5.65,5.36-14.68,5.35T931.62,186.61Zm-1.68,21h32.72V320.44H929.94Z"/><path class="cls-1" d="M1105.09,207.59l-47.62,112.85H1023.7L976.29,207.59h33.78l31.25,76.77,32.3-76.77Z"/><path class="cls-1" d="M1225.28,273.25h-85.37a26.61,26.61,0,0,0,10.9,16.57q8.61,6.09,21.4,6.08a43.33,43.33,0,0,0,15.63-2.62,37.92,37.92,0,0,0,12.69-8.29l17.41,18.88q-15.95,18.25-46.57,18.25-19.08,0-33.77-7.45A54.51,54.51,0,0,1,1115,294a56.85,56.85,0,0,1-8-30,57.69,57.69,0,0,1,7.86-29.89,55.14,55.14,0,0,1,21.61-20.77,66.83,66.83,0,0,1,60.72-.31,52,52,0,0,1,21.08,20.45q7.66,13.32,7.66,30.94C1225.91,264.86,1225.7,267.79,1225.28,273.25ZM1148.72,237q-7.56,6.28-9.23,17.2h55.59a27.16,27.16,0,0,0-9.23-17.1,27.63,27.63,0,0,0-18.46-6.4Q1156.26,230.66,1148.72,237Z"/><path class="cls-1" d="M443.63,232.82Q455.15,246,455.16,267q0,26-19,40t-56.32,14H288.82V116.68H374q33.27,0,51.8,13.57t18.53,38.67q0,17.51-9.19,29.47t-24.95,17.22Q432.11,219.69,443.63,232.82ZM303.7,129.52v81.42h69.75q26.83,0,41.29-10.36t14.45-30.5q0-19.83-14.45-30.2t-41.29-10.36ZM425,297.75q15.33-10.35,15.32-31.95T425,234q-15.31-10.22-45.08-10.21H303.7v84.33h76.17Q409.63,308.11,425,297.75Z"/><path class="cls-1" d="M632.29,248.29h-131q.58,17.81,9.05,31.66a57.76,57.76,0,0,0,22.91,21.45A68.85,68.85,0,0,0,565.75,309a69.69,69.69,0,0,0,27.58-5.4,53.82,53.82,0,0,0,21.16-15.9l8.46,9.63a65,65,0,0,1-25,18.38,81.94,81.94,0,0,1-32.54,6.42q-22.76,0-40.56-9.92A71.89,71.89,0,0,1,497,284.77q-10.06-17.5-10.07-40,0-22.17,9.49-39.83a70,70,0,0,1,26.12-27.58,71.53,71.53,0,0,1,37.35-9.92q20.72,0,37.2,9.77a69.62,69.62,0,0,1,26,27.29q9.48,17.5,9.48,39.69ZM531,187.45a54.49,54.49,0,0,0-20.57,20.13,65.47,65.47,0,0,0-8.9,29.33H618.28a61.09,61.09,0,0,0-8.75-29.18,56.65,56.65,0,0,0-49.61-27.43A58.33,58.33,0,0,0,531,187.45Z"/><polygon class="cls-2" points="170.51 241.48 167.91 243.97 155.35 256.18 196.85 299.93 159.47 337.99 157.28 340.2 42.7 340.2 143.54 239.33 153.48 229.66 166.22 217.63 226.85 160.34 179.91 113.09 87.71 20.25 21.35 86.66 6.34 101.68 6.34 107.22 111.99 212.89 127.1 197.91 33.63 104.44 87.7 50.38 167.36 130.6 196.42 159.85 151.3 202.5 15.73 337.05 15.81 361.46 162.37 361.46 166.26 361.39 167.97 359.64 167.97 359.64 170.08 357.49 174.79 352.75 174.87 352.65 226.41 300.14 174.24 245.22 170.51 241.48"/></svg>
